# xmcd CD database file
#
# Track frame offsets:
#	150
#	13256
#	24937
#	36224
#	45505
#	56530
#	70405
#	84280
#	100292
#	119060
#	135785
#
# Disc length: 2029 seconds
#
# Revision: 0
# Processed by: cddbd v1.5.2PL0 Copyright (c) Steve Scherf et al.
# Submitted via: CDex 1.70beta2
#
DISCID=8907eb0b
DTITLE=Just In Time - Soprano Parts Spring 2007
DYEAR=2007
DGENRE=Jazz
TTITLE0=Choo Choo Cha Boogie
TTITLE1=I've Got You Under My Skin
TTITLE2=Just In Time 1st Soprano
TTITLE3=Just In Time 2nd Soprano
TTITLE4=My Funny Valentine
TTITLE5=Oo Shoo Be Doobie
TTITLE6=Oo Shoo Be Doobie 2nd Soprano
TTITLE7=Proud Mary
TTITLE8=Sir Duke
TTITLE9=Way Back Blues 1st Soprano
TTITLE10=Way Back Blues 2nd Soprano
EXTD=YEAR: 2007
EXTT0=
EXTT1=
EXTT2=
EXTT3=
EXTT4=
EXTT5=
EXTT6=
EXTT7=
EXTT8=
EXTT9=
EXTT10=
PLAYORDER=
